PathFileType	4	(X/Y/Z)	/Users/itak/Documents/Research/Walk-IL/dataset/trc/00004_00004.trc
DataRate	CameraRate	NumFrames	NumMarkers	Units	OrigDataRate	OrigDataStartFrame	OrigNumFrames
100.000000	100.000000	4	53	mm	100.000000	283	566
Frame#	Time	RPSI			LPSI			L3			STRN			T10			C7			CLAV			RBAK			LBAK			LSHO			LUPA			LAEL			LAOL			LWTS			LWPS			LFRA			LIFD			LHPS			LHTS			RSHO			RUPA			RAEL			RAOL			RWTS			RWPS			RFRA			RIFD			RHTS			RHPS			RBHD			LFHD			RFHD			LBHD			LHIP			RHIP			RASI			LASI			LKNE			LTHI			LANK			LTIP			LTOE			LMT1			LMT5			LHEE			RKNE			RTHI			RANK			RTIP			RTOE			RMT1			RMT5			RHEE			
		X1	Y1	Z1	X2	Y2	Z2	X3	Y3	Z3	X4	Y4	Z4	X5	Y5	Z5	X6	Y6	Z6	X7	Y7	Z7	X8	Y8	Z8	X9	Y9	Z9	X10	Y10	Z10	X11	Y11	Z11	X12	Y12	Z12	X13	Y13	Z13	X14	Y14	Z14	X15	Y15	Z15	X16	Y16	Z16	X17	Y17	Z17	X18	Y18	Z18	X19	Y19	Z19	X20	Y20	Z20	X21	Y21	Z21	X22	Y22	Z22	X23	Y23	Z23	X24	Y24	Z24	X25	Y25	Z25	X26	Y26	Z26	X27	Y27	Z27	X28	Y28	Z28	X29	Y29	Z29	X30	Y30	Z30	X31	Y31	Z31	X32	Y32	Z32	X33	Y33	Z33	X34	Y34	Z34	X35	Y35	Z35	X36	Y36	Z36	X37	Y37	Z37	X38	Y38	Z38	X39	Y39	Z39	X40	Y40	Z40	X41	Y41	Z41	X42	Y42	Z42	X43	Y43	Z43	X44	Y44	Z44	X45	Y45	Z45	X46	Y46	Z46	X47	Y47	Z47	X48	Y48	Z48	X49	Y49	Z49	X50	Y50	Z50	X51	Y51	Z51	X52	Y52	Z52	X53	Y53	Z53	

284	2.83	-414.7081909179688	1030.158569335938	-165.4618072509766	-437.5148620605469	1029.460693359375	-327.1288452148438	-428.0307312011719	1101.506469726562	-258.3624877929688	-197.3464660644531	1286.739501953125	-272.0796813964844	-449.4171142578125	1242.230346679688	-268.4094543457031	-395.6701354980469	1507.2763671875	-287.2823486328125	-237.8886108398438	1413.911254882812	-277.8073120117188	-450.0932006835938	1373.815551757812	-204.4409942626953	-411.3056640625	1464.8466796875	-384.7548217773438	-306.4889221191406	1469.31396484375	-456.782470703125	-337.4998168945312	1344.396606445312	-534.5117797851562	-342.0413513183594	1125.554443359375	-560.0770874023438	-405.9476318359375	1116.191650390625	-475.3587036132812	-263.4317321777344	872.88818359375	-492.4666137695312	-338.4087829589844	858.3553466796875	-537.7515869140625	-331.1171875	1009.137512207031	-562.0601196289062	-238.7783660888672	689.0809936523438	-468.2162170410156	-306.8244018554688	768.8601684570312	-532.024169921875	-243.0151977539062	779.0064697265625	-502.6084594726562	-320.3142700195312	1495.909423828125	-111.1523284912109	-334.8180236816406	1424.991333007812	-37.47538375854492	-366.2532653808594	1155.676635742188	-7.333117008209229	-372.4871520996094	1126.47998046875	-102.8779525756836	-193.4405822753906	926.6749267578125	-56.3985481262207	-247.5444793701172	895.7293701171875	11.09487533569336	-341.2959289550781	1079.46728515625	6.525619029998779	-132.6671447753906	752.0054321289062	-81.80479431152344	-135.1070556640625	827.3643798828125	-49.52669143676758	-185.0453643798828	807.6322021484375	2.295291662216187	-345.9302062988281	1687.53125	-347.6732788085938	-164.74462890625	1704.1884765625	-226.5359039306641	-165.2564392089844	1703.553344726562	-325.2303161621094	-337.0493469238281	1683.890502929688	-203.2458648681641	-360.0573120117188	932.5046997070312	-446.0509338378906	-277.8819580078125	933.7332153320312	-80.40372467041016	-194.9405212402344	964.4213256835938	-169.3354644775391	-232.4659118652344	972.608154296875	-401.4554138183594	-383.8143615722656	490.592041015625	-394.8112182617188	-382.1124572753906	630.6851196289062	-429.7601928710938	-626.84814453125	56.00304794311523	-376.7699890136719	-531.7146606445312	284.5172119140625	-401.7960205078125	-421.539794921875	38.18751907348633	-281.1624450683594	-480.82763671875	49.97279357910156	-274.8629150390625	-501.5938415527344	36.46614074707031	-379.6824035644531	-701.3588256835938	80.48509979248047	-334.5014953613281	-126.8402481079102	531.6107788085938	-137.9044647216797	-211.2661895751953	781.5591430664062	-86.06218719482422	-77.69756317138672	38.16207504272461	-145.2025604248047	-108.0527191162109	408.0133056640625	-135.3230895996094	137.655517578125	84.9822998046875	-218.2273559570312	71.93335723876953	74.93158721923828	-239.7290649414062	69.19579315185547	61.97312927246094	-143.2952880859375	-137.2637939453125	31.36648178100586	-181.2436065673828	
285	2.84	-405.5332946777344	1030.097534179688	-164.2822723388672	-428.3736267089844	1029.187744140625	-325.9772644042969	-418.9126586914062	1101.036010742188	-257.2958374023438	-188.6369476318359	1286.504150390625	-270.5041809082031	-440.6098937988281	1241.702270507812	-267.5579223632812	-387.2218017578125	1506.883544921875	-286.1765747070312	-229.2954254150391	1413.614624023438	-276.2554321289062	-441.6573181152344	1373.309204101562	-203.5440368652344	-402.5436706542969	1464.406616210938	-383.7409973144531	-297.519775390625	1468.846923828125	-455.4058227539062	-327.7631530761719	1343.77734375	-533.1541137695312	-330.9524841308594	1124.993286132812	-558.8101196289062	-395.2693176269531	1115.178100585938	-474.4644165039062	-250.2051544189453	873.2798461914062	-490.4466857910156	-324.7665405273438	857.8682250976562	-536.1490478515625	-318.9384765625	1008.658142089844	-560.646728515625	-223.6208038330078	689.77294921875	-465.8654479980469	-292.303955078125	768.7459716796875	-530.0994262695312	-228.6289367675781	779.6394653320312	-500.3475036621094	-312.255615234375	1495.368408203125	-109.7069473266602	-327.0232849121094	1424.328857421875	-36.22472763061523	-359.0638732910156	1155.052124023438	-6.666252613067627	-364.8841552734375	1126.014770507812	-102.3030853271484	-189.0325012207031	923.7630615234375	-54.38732528686523	-244.0492248535156	893.699951171875	12.79832649230957	-334.9872436523438	1078.756469726562	7.321148872375488	-130.6823272705078	748.1870727539062	-79.05110168457031	-132.2789611816406	823.58837890625	-46.91767120361328	-182.7962646484375	804.709716796875	4.6518235206604	-337.2634582519531	1687.255004882812	-346.294189453125	-156.0805969238281	1703.81005859375	-225.16796875	-156.5773315429688	1703.194091796875	-323.8693237304688	-328.373046875	1683.60693359375	-201.9186248779297	-351.1292724609375	932.0499877929688	-444.7952880859375	-268.4884643554688	933.8587036132812	-79.20904541015625	-185.6255798339844	964.4296264648438	-168.14306640625	-223.3801574707031	972.1920166015625	-400.2586364746094	-376.7506713867188	490.281982421875	-394.2654113769531	-374.3480224609375	630.5093383789062	-429.0307922363281	-625.9122314453125	58.30620574951172	-377.5122680664062	-527.3812866210938	285.82763671875	-402.044189453125	-421.5140991210938	38.14461135864258	-281.0494079589844	-480.4453735351562	50.49026489257812	-275.0543212890625	-501.0896301269531	36.50939178466797	-379.8459167480469	-700.109619140625	84.17658233642578	-335.4850463867188	-117.4644393920898	531.7406616210938	-137.9267883300781	-201.9136657714844	781.6946411132812	-85.20555114746094	-76.37379455566406	37.79865264892578	-145.5453643798828	-99.62380981445312	407.3983764648438	-135.8178863525391	140.298828125	77.56000518798828	-218.9640808105469	74.31778717041016	69.44159698486328	-240.387939453125	71.1590576171875	57.21643447875977	-143.9024658203125	-136.2549438476562	32.47026443481445	-181.4036102294922	
286	2.85	-396.2553405761719	1030.288330078125	-163.1432342529297	-419.0872802734375	1029.104736328125	-324.8768310546875	-409.733642578125	1100.794311523438	-256.2800903320312	-179.8405151367188	1286.496826171875	-268.8924560546875	-431.7391052246094	1241.390258789062	-266.7023620605469	-378.7100830078125	1506.685302734375	-285.0663452148438	-220.626708984375	1413.52978515625	-274.6810302734375	-433.1561279296875	1373.006469726562	-202.654296875	-393.7032165527344	1464.172241210938	-382.721435546875	-288.4645690917969	1468.602783203125	-454.007080078125	-317.9471130371094	1343.389038085938	-531.7852172851562	-319.8095397949219	1124.681274414062	-557.5018920898438	-384.5085144042969	1114.428344726562	-473.5145568847656	-236.8818206787109	873.953369140625	-488.4032592773438	-311.0531921386719	857.6552734375	-534.4927978515625	-306.70458984375	1008.440795898438	-559.1981811523438	-208.3700103759766	690.7593383789062	-463.4951782226562	-277.6690979003906	768.9019165039062	-528.1284790039062	-214.1724243164062	780.5556640625	-498.0905151367188	-304.145751953125	1495.04638671875	-108.2542037963867	-319.1833801269531	1423.884033203125	-34.96334075927734	-351.8463745117188	1154.655883789062	-6.018949508666992	-357.2337951660156	1125.776489257812	-101.7514801025391	-184.7997283935547	920.978759765625	-52.27272415161133	-240.8291625976562	891.8623046875	14.53301811218262	-328.7442016601562	1078.282958984375	8.100687026977539	-129.0594329833984	744.4669799804688	-76.12232971191406	-129.7478637695312	819.900146484375	-44.11263656616211	-180.9351501464844	801.9362182617188	7.126377582550049	-328.5469360351562	1687.186645507812	-344.8970642089844	-147.3610382080078	1703.629272460938	-223.7749938964844	-147.83837890625	1703.044799804688	-322.49072265625	-319.6495056152344	1683.530639648438	-200.570068359375	-342.0271301269531	931.7054443359375	-443.5370178222656	-259.05078125	934.3001708984375	-77.87928009033203	-176.1936798095703	964.7210083007812	-166.8617095947266	-214.1318511962891	971.959228515625	-398.9808349609375	-369.2422790527344	490.0403747558594	-393.7058715820312	-366.2404479980469	630.4232177734375	-428.2874145507812	-624.8482055664062	60.87641906738281	-378.3124389648438	-522.6865234375	287.2874755859375	-402.3236694335938	-421.4508666992188	38.11489105224609	-280.9745788574219	-479.9946594238281	51.05791854858398	-275.2382507324219	-500.5249938964844	36.59511947631836	-380.0110473632812	-698.647216796875	88.25732421875	-336.5381469726562	-108.0815048217773	532.0297241210938	-137.7818450927734	-192.7758026123047	781.9200439453125	-84.13691711425781	-75.32211303710938	37.5800666809082	-145.74560546875	-91.30135345458984	406.9527282714844	-136.0671234130859	142.5781860351562	70.66829681396484	-219.4203948974609	76.35373687744141	64.50221252441406	-240.7971038818359	72.76799774169922	52.86636734008789	-144.2729797363281	-135.5312957763672	33.64055633544922	-181.4574737548828	
287	2.86	-386.8930358886719	1030.71044921875	-162.0491790771484	-409.6601867675781	1029.202758789062	-323.8268127441406	-400.5106201171875	1100.780151367188	-255.3170776367188	-170.9530944824219	1286.721557617188	-267.2501525878906	-422.8124084472656	1241.2998046875	-265.8417053222656	-370.1379699707031	1506.687377929688	-283.9576721191406	-211.8820037841797	1413.66357421875	-273.0922546386719	-424.5894775390625	1372.913208007812	-201.7720031738281	-384.7859191894531	1464.153686523438	-381.69921875	-279.3277282714844	1468.59521484375	-452.5889892578125	-308.0558471679688	1343.253173828125	-530.4110717773438	-308.6286926269531	1124.637573242188	-556.160888671875	-373.6844787597656	1113.971069335938	-472.5211181640625	-223.4961700439453	874.927734375	-486.3450927734375	-297.2965698242188	857.7344970703125	-532.7891235351562	-294.4430541992188	1008.506713867188	-557.7222290039062	-193.0723419189453	692.0653686523438	-461.1058654785156	-262.9638366699219	769.3491821289062	-526.1201171875	-199.6937103271484	781.7713012695312	-495.8460083007812	-295.9811401367188	1494.956787109375	-106.8100357055664	-311.2855224609375	1423.677734375	-33.69839477539062	-344.6148376464844	1154.51318359375	-5.398890018463135	-349.5333862304688	1125.787353515625	-101.2268447875977	-180.7120208740234	918.372802734375	-50.0446891784668	-237.8832550048828	890.258056640625	16.27450370788574	-322.5564880371094	1078.07763671875	8.863236427307129	-127.7552642822266	740.9166870117188	-73.02696228027344	-127.4778823852539	816.3621826171875	-41.0915412902832	-179.4519805908203	799.3619995117188	9.705142974853516	-319.7867431640625	1687.328491210938	-343.490234375	-138.5931243896484	1703.651000976562	-222.3658142089844	-139.0468902587891	1703.10400390625	-321.1005859375	-310.8821411132812	1683.663940429688	-199.2053985595703	-332.7474060058594	931.4835815429688	-442.2825012207031	-249.5492095947266	935.031982421875	-76.46845245361328	-166.6519927978516	965.2850952148438	-165.5132141113281	-204.7322540283203	971.9208984375	-397.63818359375	-361.2449035644531	489.8652648925781	-393.1425476074219	-357.7602233886719	630.424072265625	-427.5289916992188	-623.6276245117188	63.72682952880859	-379.1424865722656	-517.6001586914062	288.8968811035156	-402.6302185058594	-421.3604431152344	38.10572052001953	-280.9361267089844	-479.4672241210938	51.67037582397461	-275.4049682617188	-499.8872375488281	36.7287483215332	-380.1685791015625	-696.9407348632812	92.75726318359375	-337.62939453125	-98.76331329345703	532.42822265625	-137.4514312744141	-183.896728515625	782.1818237304688	-82.84264373779297	-74.43925476074219	37.47192001342773	-145.8195953369141	-83.15798187255859	406.6350402832031	-136.0489807128906	144.5561218261719	64.54149627685547	-219.6209869384766	78.11653900146484	60.28693008422852	-240.97265625	74.12007904052734	49.09149932861328	-144.4253692626953	-134.9839782714844	34.7624626159668	-181.4659576416016	
